<svg xmlns="http://www.w3.org/2000/svg" viewBox="2 2 28 28">
<rect x="2" y="2" width="28" height="28" rx="4" fill="#0c0c0c"/>
<path fill="#FFFFFF" d="M8,15.98c0,1.92,1.32,3.32,3.15,3.32h0.7c1.86,0,3.18-1.41,3.19-3.31h1.77
	c-0.03,1.29-0.44,2.44-1.15,3.31c-0.88,1.09-2.22,1.77-3.82,1.77h-0.7c-2.83,0-4.93-2.23-4.93-5.18c0-2.97,2.1-4.96,4.93-4.96
	H20v1.77h-8.85C9.34,12.7,8,14.05,8,15.98z"/>
<circle fill="#FFFFFF" cx="11.79" cy="16" r="1.61"/>
<circle fill="#FFFFFF" cx="20.21" cy="16" r="1.61"/>
<path fill="#CBCBCB" d="M20,10.93v1.77h-5.05c0-0.01,0.01-0.01,0.01-0.02c0.71-1.13,2.02-1.75,3.36-1.75H20z"/>
<path fill="#FFFFFF" d="M25.78,16.11c0,2.97-2.1,4.96-4.93,4.96h-8.68V19.3h8.68c1.81,0,3.15-1.35,3.15-3.28
	c0-1.92-1.32-3.32-3.15-3.32H20c-1.86,0-3.18,1.41-3.19,3.29h-1.77c0.04-2.89,2.1-5.06,4.96-5.06h0.85
	C23.68,10.93,25.78,13.16,25.78,16.11z"/>
<path fill="#CBCBCB" d="M16.88,19.3c0,0.01-0.01,0.01-0.01,0.02c-0.67,1.13-1.96,1.75-3.27,1.75h-1.75c1.6,0,2.93-0.68,3.82-1.77
	H16.88z"/>
</svg>
