<svg version="1.1" xmlns="http://www.w3.org/2000/svg" viewBox="0 0 1080 196">
<g transform="translate(-465,-840)" fill="#FFFFFF">
	<polygon points="576.36,898.13 706.69,1026.16 729.37,1026.16 729.37,849.91 700,849.91 700,976.62 569.34,849.91 546.98,849.91 546.98,1026.16 576.36,1026.16"/>
	<path d="M474.88,1026.12V849.95h30.78v176.18H474.88z"/>
	<path d="M768.87,1026.12V849.95h30.78v145.4h118.5v30.78H768.87z"/>
	<g transform="translate(-30,0)"><path d="M1346.84,977.17v-29.81h113.82c21.56,0,34.41-13.57,34.41-33.45c0-20.35-12.85-33.2-34.41-33.2h-93.31v145.41h-30.53V849.95h123.84c40.71,0,64.46,24.47,64.46,63.01c0,38.04-23.75,64.22-64.46,64.22H1346.84z"/></g>
	<path d="M968.18,937.66c0,33.28,22.94,57.73,54.7,57.73h12.11c32.27,0,55.21-24.45,55.46-57.48h30.75c-0.5,22.43-7.56,42.35-19.92,57.48c-15.37,18.91-38.57,30.75-66.3,30.75h-12.11c-49.16,0-85.71-38.82-85.71-90c0-51.68,36.55-86.21,85.71-86.21h153.77v30.75h-153.77C991.37,880.68,968.18,904.13,968.18,937.66z M1005.42,938.03a28.5,28.5,0,1,0,57,0a28.5,28.5,0,1,0,-57,0z M1151.84,938.03a28.5,28.5,0,1,0,57,0a28.5,28.5,0,1,0,-57,0z M1176.66,849.93v30.75h-87.73c0.08-0.12,0.15-0.24,0.23-0.36c12.4-19.65,35.1-30.39,58.34-30.39H1176.66z M1277.1,939.92c0,51.68-36.55,86.21-85.71,86.21h-150.85v-30.75h150.85c31.51,0,54.71-23.45,54.71-56.97c0-33.28-22.94-57.73-54.71-57.73h-14.73c-32.27,0-55.21,24.45-55.46,57.22h-30.75c0.76-50.16,36.55-87.98,86.21-87.98h14.73C1240.54,849.93,1277.1,888.75,1277.1,939.92z M1122.46,995.38c-0.07,0.12-0.15,0.25-0.22,0.37c-11.71,19.59-33.99,30.38-56.81,30.38h-30.44c27.73,0,50.92-11.85,66.3-30.75H1122.46z"/>
</g>
</svg>
